<svg
  viewBox="0 0 120 20"
  
  width="216"
  height="36"
  fill="none"
  xmlns="http://www.w3.org/2000/svg"
>
  <path
    d="M0.711522 0.722502L11.7796 11.9658C11.9079 12.0961 11.938 12.2957 11.854 12.4591L8.10113 19.7728C7.93714 20.0927 7.47939 20.0699 7.3474 19.7353L0.0321565 1.17828C-0.135612 0.752416 0.392196 0.398121 0.711522 0.722502Z"
    fill="#3059AF"
  />
  <path
    d="M0.711522 0.722502L11.7796 11.9658C11.9079 12.0961 12.1043 12.1268 12.2653 12.0414L19.4653 8.22939C19.7801 8.06281 19.7577 7.59781 19.4283 7.46373L1.1599 0.0326798C0.740676 -0.137745 0.392196 0.398121 0.711522 0.722502Z"
    fill="#549ED7"
  />
  <path
    d="M27.4865 7.73259V5.73114H29.013V3.42316H31.5336V5.73114H33.6636V7.73259H31.5336V11.5732C31.5247 12.4748 31.8797 12.8534 32.7228 12.8534C33.0068 12.8534 33.3174 12.8083 33.6636 12.7092V15.0352C33.2464 15.1884 32.7583 15.2876 32.2081 15.2876C30.1491 15.2876 29.0042 14.0074 29.013 11.7175V7.73259H27.4865Z"
    fill="#3059AF"
  />
  <path
    d="M35.4386 15.0352V5.73114H37.9591V7.08348H38.0301C38.5005 6.10078 39.3791 5.47871 40.4264 5.47871C40.7192 5.47871 41.0032 5.5328 41.3139 5.62296V8.05715C40.9322 7.95798 40.5506 7.90389 40.2311 7.89488C38.7667 7.90389 37.968 8.91363 37.9591 10.7618V15.0352H35.4386Z"
    fill="#3059AF"
  />
  <path
    d="M47.2069 12.9436C48.547 12.9436 49.5055 11.8888 49.5144 10.3832C49.5055 8.87757 48.547 7.82275 47.2069 7.82275C45.8579 7.82275 44.9083 8.88659 44.9171 10.3832C44.9083 11.8797 45.8579 12.9436 47.2069 12.9436ZM51.9639 15.0352H49.4434V13.755H49.3724C48.7955 14.7828 47.8636 15.2876 46.6566 15.2876C44.145 15.2876 42.37 13.178 42.3789 10.3832C42.37 7.58835 44.145 5.47871 46.6566 5.47871C47.8636 5.47871 48.7778 5.97456 49.3724 6.99332H49.4434V5.73114H51.9639V15.0352Z"
    fill="#3059AF"
  />
  <path
    d="M58.5314 15.2876C55.7536 15.2876 53.6413 13.178 53.6502 10.3832C53.6413 7.58835 55.7536 5.47871 58.5314 5.47871C60.4662 5.47871 62.0371 6.50648 62.7915 8.11125L60.555 9.04886C60.1911 8.27353 59.4633 7.82275 58.5314 7.82275C57.0848 7.82275 56.0731 8.87757 56.0819 10.3832C56.0731 11.8888 57.0848 12.9436 58.5314 12.9436C59.4633 12.9436 60.1911 12.4928 60.555 11.7175L62.7915 12.6551C62.0371 14.2598 60.4662 15.2876 58.5314 15.2876Z"
    fill="#3059AF"
  />
  <path
    d="M64.4777 15.0352V1.98068H66.9982V9.5357H67.0692L70.0157 5.73114H72.9978L69.3945 10.1848L73.0865 15.0352H70.1932L67.0692 10.888H66.9982V15.0352H64.4777Z"
    fill="#3059AF"
  />
  <path
    d="M78.4115 12.9436C79.7517 12.9436 80.7102 11.8888 80.7191 10.3832C80.7102 8.87757 79.7517 7.82275 78.4115 7.82275C77.0625 7.82275 76.1129 8.88659 76.1218 10.3832C76.1129 11.8797 77.0625 12.9436 78.4115 12.9436ZM83.1686 15.0352H80.6481V13.755H80.577C80.0002 14.7828 79.0683 15.2876 77.8613 15.2876C75.3497 15.2876 73.5746 13.178 73.5835 10.3832C73.5746 7.58835 75.3497 5.47871 77.8613 5.47871C79.0683 5.47871 79.9824 5.97456 80.577 6.99332H80.6481V5.73114H83.1686V15.0352Z"
    fill="black"
  />
  <path
    d="M85.3163 15.0352V5.73114H87.8368V7.08348H87.9078C88.3782 6.10078 89.2568 5.47871 90.3041 5.47871C90.597 5.47871 90.881 5.5328 91.1916 5.62296V8.05715C90.81 7.95798 90.4284 7.90389 90.1088 7.89488C88.6445 7.90389 87.8457 8.91363 87.8368 10.7618V15.0352H85.3163Z"
    fill="black"
  />
  <path
    d="M97.2266 15.2876C94.2535 15.2876 92.2477 13.205 92.2389 10.3832C92.2477 7.50721 94.2801 5.47871 97.0491 5.47871C99.8182 5.47871 101.726 7.50721 101.717 10.3832C101.726 10.6626 101.7 10.9421 101.664 11.2126H94.7949C94.999 12.4207 95.9664 13.196 97.2266 13.196C98.1763 13.196 98.8508 12.7543 99.1969 12.024L101.398 12.8715C100.652 14.35 99.2058 15.2876 97.2266 15.2876ZM94.8304 9.26524H99.1436C99.0194 8.30057 98.2206 7.57031 97.0491 7.57031C95.9398 7.57031 95.0966 8.22845 94.8304 9.26524Z"
    fill="black"
  />
  <path
    d="M107.93 15.2876C104.957 15.2876 102.951 13.205 102.942 10.3832C102.951 7.50721 104.983 5.47871 107.752 5.47871C110.521 5.47871 112.43 7.50721 112.421 10.3832C112.43 10.6626 112.403 10.9421 112.367 11.2126H105.498C105.702 12.4207 106.67 13.196 107.93 13.196C108.88 13.196 109.554 12.7543 109.9 12.024L112.101 12.8715C111.356 14.35 109.909 15.2876 107.93 15.2876ZM105.534 9.26524H109.847C109.723 8.30057 108.924 7.57031 107.752 7.57031C106.643 7.57031 105.8 8.22845 105.534 9.26524Z"
    fill="black"
  />
  <path
    d="M114.125 15.0352V5.73114H116.645V7.08348H116.716C117.187 6.10078 118.065 5.47871 119.113 5.47871C119.405 5.47871 119.689 5.5328 120 5.62296V8.05715C119.618 7.95798 119.237 7.90389 118.917 7.89488C117.453 7.90389 116.654 8.91363 116.645 10.7618V15.0352H114.125Z"
    fill="black"
  />
</svg>